# xmcd
#
# Track frame offsets: 
#        150
#        10467
#        31397
#        47257
#        78132
#        89225
#        115612
#        130065
#        148060
#        164095
#
# Disc length: 2335 seconds
#
# Revision: 18
# Processed by: cddbd v1.5.2PL0 Copyright (c) Steve Scherf et al.
# Submitted via: ExactAudioCopy v0.99pb3
#
DISCID=7f091d0a
DTITLE=Stevie Ray Vaughan And Double Trouble - The Sky Is Crying (Orig
DTITLE=inal Master Recording)
DYEAR=1991
DGENRE=Blues
TTITLE0=Boot Hill
TTITLE1=The Sky Is Crying
TTITLE2=Empty Arms
TTITLE3=Little Wing
TTITLE4=Wham
TTITLE5=May I Have A Talk With You
TTITLE6=Close To You
TTITLE7=Chitlins Con Carne
TTITLE8=So Excited
TTITLE9=Life By The Drop
EXTD=
EXTT0=
EXTT1=
EXTT2=
EXTT3=
EXTT4=
EXTT5=
EXTT6=
EXTT7=
EXTT8=
EXTT9=
PLAYORDER=
